<?xml version="1.0" encoding="UTF-8" standalone="no"?>
<svg
   viewBox="0 0 147.80217 106.96209"
   version="1.1"
   id="svg14"
   sodipodi:docname="logo copy.svg"
   width="147.80217"
   height="106.9621"
   inkscape:version="1.4.2 (ebf0e940, 2025-05-08)"
   xmlns:inkscape="http://www.inkscape.org/namespaces/inkscape"
   xmlns:sodipodi="http://sodipodi.sourceforge.net/DTD/sodipodi-0.dtd"
   xmlns="http://www.w3.org/2000/svg"
   xmlns:svg="http://www.w3.org/2000/svg">
  <sodipodi:namedview
     id="namedview14"
     pagecolor="#ffffff"
     bordercolor="#666666"
     borderopacity="1.0"
     inkscape:showpageshadow="2"
     inkscape:pageopacity="0.0"
     inkscape:pagecheckerboard="0"
     inkscape:deskcolor="#d1d1d1"
     inkscape:zoom="4.0693103"
     inkscape:cx="33.666639"
     inkscape:cy="39.07296"
     inkscape:window-width="3008"
     inkscape:window-height="1639"
     inkscape:window-x="1800"
     inkscape:window-y="25"
     inkscape:window-maximized="1"
     inkscape:current-layer="svg14" />
  <defs
     id="defs1">
    <style
       id="style1">.cls-1{fill:#231815;}.cls-2{fill:#00a8e7;}.cls-3{fill:#f6a700;}</style>
    <clipPath
       clipPathUnits="userSpaceOnUse"
       id="clipPath14">
      <rect
         id="rect15"
         width="147.80217"
         height="106.9621"
         x="0.64825499"
         y="0.64825505" />
    </clipPath>
  </defs>
  <g
     id="レイヤー_2"
     data-name="レイヤー 2"
     clip-path="url(#clipPath14)"
     transform="translate(-0.64825501,-0.64825533)">
    <g
       id="レイヤー_1-2"
       data-name="レイヤー 1">
      <path
         class="cls-1"
         d="M 519.12,66.08 H 497 L 508.23,34.2 Z M 538.7,89.79 512.37,18 h -8.78 l -26.33,71.79 h 11.6 l 4.94,-14.43 h 28.35 l 5,14.43 z M 467.89,18 H 456 L 441,49.54 425.92,18 H 414 l 21.5,42.23 v 29.56 h 10.9 V 60.23 Z M 384.56,66.08 H 362.47 L 373.67,34.2 Z M 404.13,89.79 377.8,18 H 369 l -26.3,71.79 h 11.6 l 4.94,-14.43 h 28.35 l 4.94,14.43 z M 314.36,39 c 0,7.07 -4.94,11.2 -12.21,11.2 H 286 V 27.74 h 16.14 c 7.27,0 12.21,4.24 12.21,11.3 M 327.46,89.79 310.93,58 c 8.08,-2.22 14.32,-8.78 14.32,-19.07 0,-12.21 -8.67,-21 -22.29,-21 H 275.12 V 89.79 H 286 V 59.52 h 13.63 l 15.12,30.27 z M 233.26,66.08 H 211.17 L 222.37,34.2 Z M 252.83,89.79 226.5,18 h -8.77 L 191.4,89.79 H 203 l 4.94,-14.43 h 28.35 l 5,14.43 z"
         id="path1" />
      <path
         class="cls-2"
         d="M 97.37,10.8 22.35,75 a 6.1450976,6.1450976 0 0 1 -8,-9.33 l 75,-64.18 a 6.1413028,6.1413028 0 0 1 8,9.32"
         id="path2" />
      <path
         class="cls-3"
         d="M 130.48,21.12 46.87,92.65 a 6.1450976,6.1450976 0 1 1 -8,-9.33 l 83.6,-71.53 a 6.1450976,6.1450976 0 0 1 8,9.33"
         id="path3" />
      <path
         class="cls-2"
         d="m 146.16,46.29 -54.7,46.95 a 6.1413028,6.1413028 0 0 1 -8,-9.32 L 138.17,37 a 6.1375097,6.1375097 0 1 1 8,9.31"
         id="path4" />
      <path
         class="cls-3"
         d="M 49,13.57 10.13,46.79 a 6.1450976,6.1450976 0 1 1 -8,-9.33 L 41,4.24 a 6.1450976,6.1450976 0 1 1 8,9.33"
         id="path5" />
      <path
         class="cls-3"
         d="m 146.19,84.87 -24.65,21.37 A 6.14,6.14 0 0 1 113.49,97 l 24.65,-21.38 a 6.1424934,6.1424934 0 0 1 8.05,9.28"
         id="path6" />
      <path
         d="m 70.05,152.18 h 24.64 c 8.19,0 13.38,5.7 13.38,12.61 0,5.37 -2.18,9.4 -7.23,11.45 v 0.13 c 4.92,1.28 6.33,6.08 6.65,10.69 0.19,2.88 0.13,8.25 1.92,10.81 h -10 c -1.21,-2.88 -1.08,-7.29 -1.6,-10.94 -0.7,-4.8 -2.56,-6.91 -7.61,-6.91 H 80.1 v 17.85 h -10 z m 10,20.67 h 11 c 4.48,0 6.91,-1.92 6.91,-6.53 0,-4.41 -2.43,-6.33 -6.91,-6.33 h -11 z"
         id="path7" />
      <path
         d="m 129.7,152.18 h 34.17 v 8.45 h -24.12 v 9.79 h 22.14 v 7.81 h -22.14 v 11.2 h 24.64 v 8.44 H 129.7 Z"
         id="path8" />
      <path
         d="m 191.46,182.71 c 0,6.08 4.74,8.44 10.11,8.44 3.52,0 8.9,-1 8.9,-5.69 0,-4.93 -6.85,-5.76 -13.57,-7.55 -6.72,-1.79 -13.63,-4.42 -13.63,-13 0,-9.35 8.83,-13.83 17.09,-13.83 9.53,0 18.3,4.16 18.3,14.72 h -9.73 c -0.32,-5.5 -4.22,-6.91 -9,-6.91 -3.2,0 -6.91,1.34 -6.91,5.18 0,3.52 2.17,4 13.63,6.92 3.32,0.83 13.56,2.94 13.56,13.31 0,8.38 -6.59,14.65 -19,14.65 -10.11,0 -19.58,-5 -19.46,-16.25 z"
         id="path9" />
      <path
         d="m 239.59,152.18 h 34.17 v 8.45 h -24.12 v 9.79 h 22.14 v 7.81 h -22.14 v 11.2 h 24.63 v 8.44 h -34.68 z"
         id="path10" />
      <path
         d="m 307,152.18 h 10.3 l 17.09,45.69 h -10.45 l -3.46,-10.17 h -17.09 l -3.58,10.17 h -10.17 z m -1,28 h 11.84 l -5.76,-16.77 H 312 Z"
         id="path11" />
      <path
         d="m 351.78,152.18 h 24.64 c 8.19,0 13.37,5.7 13.37,12.61 0,5.37 -2.17,9.4 -7.23,11.45 v 0.13 c 4.93,1.28 6.34,6.08 6.66,10.69 0.19,2.88 0.12,8.25 1.92,10.81 h -10.05 c -1.22,-2.88 -1.09,-7.29 -1.6,-10.94 -0.7,-4.8 -2.56,-6.91 -7.62,-6.91 h -10 v 17.85 h -10.09 z m 10.05,20.67 h 11 c 4.48,0 6.92,-1.92 6.92,-6.53 0,-4.41 -2.44,-6.33 -6.92,-6.33 h -11 z"
         id="path12" />
      <path
         d="m 441.89,167.54 c -0.64,-4.54 -5,-8 -10,-8 -9,0 -12.41,7.68 -12.41,15.68 0,7.61 3.39,15.29 12.41,15.29 6.15,0 9.6,-4.22 10.37,-10.24 H 452 c -1,11.4 -8.9,18.69 -20.1,18.69 -14.14,0 -22.46,-10.56 -22.46,-23.74 0,-13.57 8.32,-24.13 22.46,-24.13 10.05,0 18.5,5.89 19.71,16.45 z"
         id="path13" />
      <path
         d="m 472.29,152.18 h 10 v 17.53 h 18.49 v -17.53 h 10.05 v 45.69 h -10 v -19.71 h -18.49 v 19.71 h -10 z"
         id="path14" />
    </g>
  </g>
</svg>
